<?xml version="1.0" standalone="no"?>
<!DOCTYPE svg PUBLIC "-//W3C//DTD SVG 20010904//EN"
 "http://www.w3.org/TR/2001/REC-SVG-20010904/DTD/svg10.dtd">
<svg version="1.0" xmlns="http://www.w3.org/2000/svg"
 width="512.000000pt" height="512.000000pt" viewBox="0 0 512.000000 512.000000"
 preserveAspectRatio="xMidYMid meet">
<metadata>
Created by potrace 1.11, written by Peter Selinger 2001-2013
</metadata>
<g transform="translate(0.000000,512.000000) scale(0.100000,-0.100000)"
fill="#000000" stroke="none">
<path d="M2189 4845 c-2 -2 -54 -6 -114 -10 -61 -3 -121 -8 -135 -10 -14 -2
-61 -6 -105 -10 -44 -3 -91 -8 -105 -10 -38 -6 -100 -14 -150 -20 -136 -16
-420 -73 -597 -120 -498 -132 -839 -328 -944 -541 -33 -67 -34 -72 -35 -197
-2 -175 32 -303 114 -429 l24 -37 -40 -49 c-23 -27 -54 -73 -69 -103 -27 -52
-28 -59 -27 -204 0 -123 4 -162 21 -216 25 -77 58 -150 91 -201 l24 -36 -44
-54 c-80 -99 -93 -135 -94 -278 -1 -76 4 -152 13 -195 13 -62 81 -222 114
-266 10 -13 8 -21 -10 -40 -41 -43 -83 -110 -102 -162 -15 -41 -18 -72 -15
-181 4 -123 8 -165 20 -184 3 -5 7 -21 10 -36 3 -15 18 -56 35 -91 113 -242
359 -447 721 -600 114 -49 394 -138 498 -160 9 -2 58 -12 107 -23 50 -11 108
-23 130 -26 22 -3 51 -8 65 -11 14 -3 39 -7 55 -10 120 -16 187 -25 230 -30
28 -3 66 -7 85 -10 221 -27 981 -27 1195 0 17 2 62 7 100 10 39 4 72 9 75 10
3 2 37 6 75 10 39 4 72 9 75 10 3 2 26 6 50 10 36 5 161 29 260 50 65 14 203
52 295 82 563 181 896 443 1005 788 16 51 23 105 27 200 6 172 -10 221 -118
356 l-21 26 35 54 c39 61 85 182 95 249 4 25 7 101 7 170 0 143 -12 179 -92
277 l-44 54 30 49 c79 128 105 230 106 410 0 140 -1 147 -28 200 -16 30 -46
76 -68 103 l-40 47 30 50 c78 127 110 252 108 420 -2 121 -3 128 -36 194 -94
191 -382 370 -801 499 -100 31 -210 62 -260 72 -8 2 -37 9 -65 15 -65 15 -75
17 -120 24 -20 4 -40 8 -44 10 -3 2 -28 7 -56 10 -27 4 -57 9 -65 11 -17 4
-59 11 -135 20 -27 4 -61 8 -75 10 -25 4 -84 11 -162 20 -24 2 -77 7 -118 10
-41 3 -97 8 -125 11 -57 7 -861 15 -866 9z"/>
</g>
</svg>
